<?xml version="1.0" encoding="utf-8"?>
<!-- Generator: Adobe Illustrator 21.1.0, SVG Export Plug-In . SVG Version: 6.00 Build 0)  -->
<svg version="1.1" id="Слой_1" xmlns="http://www.w3.org/2000/svg" xmlns:xlink="http://www.w3.org/1999/xlink" x="0px" y="0px"
	 viewBox="0 0 50 50" style="enable-background:new 0 0 50 50;" xml:space="preserve">
<style type="text/css">
	.st0{fill:#4EC9DD;}
	.st1{fill:#000200;}
</style>
<g>
	<path class="st0" d="M13.2,25c0,0,1.6,2.9,6.8,3.1s10.4-6.9,15.7-4.5s2.4,15.3,2.4,15.3L32.6,46l-12.9,0.4l-8-5.4l-1.6-13.4
		L13.2,25z"/>
	<path class="st1" d="M26.6,1.6L25,0l-1.6,1.6C22.8,2.2,7.4,17.6,7.4,32.4C7.4,42,15.2,50,25,50s17.6-7.8,17.6-17.6
		C42.6,19.2,27.2,2.2,26.6,1.6z M25,45.5c-7.1,0-13.2-5.8-13.2-13.2c0-10.3,9.1-21.6,12.9-25.9c3.8,4.5,13.2,16.7,13.2,25.9
		C38.2,39.7,32.1,45.5,25,45.5z"/>
</g>
</svg>
