<?xml version="1.0" encoding="utf-8"?>
<!-- Generator: Adobe Illustrator 21.1.0, SVG Export Plug-In . SVG Version: 6.00 Build 0)  -->
<svg version="1.1" id="Слой_1" xmlns="http://www.w3.org/2000/svg" xmlns:xlink="http://www.w3.org/1999/xlink" x="0px" y="0px"
	 viewBox="0 0 50 50" style="enable-background:new 0 0 50 50;" xml:space="preserve">
<style type="text/css">
	.st0{fill:#FF0000;}
	.st1{fill:#000200;}
</style>
<g>
	<g>
		<circle class="st0" cx="25" cy="40.2" r="6.1"/>
	</g>
	<path class="st1" d="M29.9,31.8v-27C29.9,2.2,27.7,0,25,0s-4.9,2.2-4.9,4.9v27c-2.9,1.7-4.9,4.9-4.9,8.4c0,5.4,4.4,9.8,9.8,9.8
		s9.8-4.4,9.8-9.8C34.8,36.7,32.8,33.5,29.9,31.8z M25,47.6c-4,0-7.3-3.3-7.3-7.3c0-3.2,2.1-5.9,4.9-7V4.9c0-1.3,1.1-2.4,2.4-2.4
		s2.4,1.1,2.4,2.4v28.4c2.8,1,4.9,3.7,4.9,7C32.3,44.3,29,47.6,25,47.6z"/>
	<path class="st0" d="M25,18.3c-0.6,0-1.2,0.6-1.2,1.2v14.6c0,0.6,0.6,1.2,1.2,1.2s1.2-0.6,1.2-1.2V19.5
		C26.2,18.9,25.6,18.3,25,18.3z"/>
</g>
</svg>
