<?xml version="1.0" encoding="utf-8"?>
<!-- Generator: Adobe Illustrator 21.1.0, SVG Export Plug-In . SVG Version: 6.00 Build 0)  -->
<svg version="1.1" id="Слой_1" xmlns="http://www.w3.org/2000/svg" xmlns:xlink="http://www.w3.org/1999/xlink" x="0px" y="0px"
	 viewBox="0 0 50 50" style="enable-background:new 0 0 50 50;" xml:space="preserve">
<style type="text/css">
	.st0{fill:#000200;}
</style>
<g>
	<path class="st0" d="M11.2,21.8h4.6h26c0.1,0,0.2,0,0.4,0c4.4-0.4,7.8-4.1,7.8-8.5c0-4.7-3.8-8.5-8.5-8.5c-3.9,0-7.4,2.8-8.3,6.6
		l0,0v0.1v0.1l0,0c-0.1,0.9,0.5,1.8,1.4,2c0.1,0,0.2,0,0.4,0c0.8,0,1.5-0.6,1.8-1.4v-0.1l0,0c0.5-2.2,2.6-3.9,4.8-3.9
		c2.7,0,5,2.2,5,5s-2.2,5-5,5h-5.7H11.2c-0.8,0-1.5,0.1-2.4,0.5C6.5,19.5,5,21.8,5,24.3c0,2,0.9,3.9,2.7,5.1
		c1.1,0.7,2.2,1.1,3.5,1.1h21.3h5c1.9,0,3.4,1.5,3.4,3.4c0,1.9-1.5,3.3-3.3,3.4l0,0c-0.9,0-1.8,0.8-1.8,1.8c0,0.9,0.8,1.8,1.8,1.8h0
		l0,0c3.8-0.1,6.9-3.2,6.9-7c0-3.5-2.7-6.5-6.3-7c0,0-0.2,0-0.4,0h-22h-4.6c-1.4,0-2.6-1.2-2.6-2.6S9.8,21.8,11.2,21.8z M34.9,12.9
		c-0.1,0-0.1,0-0.2,0c0.1,0,0.2,0,0.4,0H34.9z"/>
	<circle class="st0" cx="28.1" cy="7.4" r="2.2"/>
	<path class="st0" d="M26.8,41.8c-1.2,0.1-2.1,1.2-2,2.4c0.1,1.2,1.1,2,2.2,2h0.1c1.2-0.1,2.1-1.2,2-2.4
		C29.1,42.6,28,41.8,26.8,41.8z M26.7,45.2L26.7,45.2L26.7,45.2L26.7,45.2z M27.2,42.8L27.2,42.8L27.2,42.8L27.2,42.8z"/>
	<path class="st0" d="M2,13.4c-1.2,0.1-2.1,1.2-2,2.4c0.1,1.2,1.1,2,2.2,2h0.1c1.2-0.1,2.1-1.2,2-2.4C4.3,14.2,3.2,13.4,2,13.4z
		 M1.9,16.8L1.9,16.8L1.9,16.8L1.9,16.8z M2.4,14.5L2.4,14.5L2.4,14.5L2.4,14.5z"/>
</g>
</svg>
